<svg
  xmlns="http://www.w3.org/2000/svg"
  width="64"
  height="64"
  viewBox="0 0 64 64"
>
  <defs>
    <radialGradient id="bg" cx="30%" cy="25%" r="75%">
      <stop offset="0%" stop-color="#2563eb" />
      <stop offset="100%" stop-color="#020617" />
    </radialGradient>
    <linearGradient id="face" x1="0%" y1="0%" x2="100%" y2="100%">
      <stop offset="0%" stop-color="#fefce8" />
      <stop offset="100%" stop-color="#fde68a" />
    </linearGradient>
  </defs>
  <circle cx="32" cy="32" r="31" fill="url(#bg)" />
  <path d="M21 24l6-11 4 11z" fill="url(#face)" />
  <path d="M43 24l-6-11-4 11z" fill="url(#face)" />
  <path d="M23 22l4-7 2.2 6z" fill="#fb7185" />
  <path d="M41 22l-4-7-2.2 6z" fill="#fb7185" />
  <circle cx="32" cy="33" r="14" fill="url(#face)" />
  <ellipse cx="27" cy="32" rx="2.3" ry="3" fill="#111827" />
  <ellipse cx="37" cy="32" rx="2.3" ry="3" fill="#111827" />
  <path d="M32 34.5l2.4 2.4h-4.8z" fill="#f43f5e" />
  <path
    d="M31 37c0 1.5-1.2 2.5-2.6 2.5M33 37c0 1.5 1.2 2.5 2.6 2.5"
    fill="none"
    stroke="#7c2d12"
    stroke-linecap="round"
    stroke-width="1.5"
  />
  <path
    d="M22 35h-7m7 2h-7m20-2h7m-7 2h7"
    fill="none"
    stroke="#fef3c7"
    stroke-linecap="round"
    stroke-width="1.5"
  />
</svg>
